# xmcd
#
# Track frame offsets: 
#        150
#        21267
#        42711
#        58176
#        76818
#        97504
#        114495
#        130651
#        148806
#        165793
#        187384
#
# Disc length: 2701 seconds
#
# Revision: 0
# Processed by: cddbd v1.5.2PL0 Copyright (c) Steve Scherf et al.
# Submitted via: ExactAudioCopy v1.3
#
DISCID=8f0a8b0b
DTITLE=West Weston - West Street
DYEAR=2018
DGENRE=Blues
TTITLE0=Your Dog Keeps Looking At Me
TTITLE1=It Could Be You
TTITLE2=36-24-38
TTITLE3=You Should Have Listened To Your Mother
TTITLE4=Moochin'
TTITLE5=You've Got Me Thinkin'
TTITLE6=Take Me For A Ride
TTITLE7=Do What You Want
TTITLE8=It's You That Wears The Ring
TTITLE9=No Snow In Mexico
TTITLE10=She's A Killer
EXTD=
EXTT0=
EXTT1=
EXTT2=
EXTT3=
EXTT4=
EXTT5=
EXTT6=
EXTT7=
EXTT8=
EXTT9=
EXTT10=
PLAYORDER=
